<svg enable-background="new 0 0 24 24" height="512" viewBox="0 0 24 24" width="512" xmlns="http://www.w3.org/2000/svg"><path d="m21 0h-18c-1.657 0-3 1.343-3 3v18c0 1.657 1.343 3 3 3h18c1.657 0 3-1.343 3-3v-18c0-1.657-1.343-3-3-3z" fill="#ffc107"/><path d="m21.25 24h-18.5c-1.517 0-2.75-1.233-2.75-2.75v-18.5c0-1.517 1.233-2.75 2.75-2.75h18.5c1.517 0 2.75 1.233 2.75 2.75v18.5c0 1.517-1.233 2.75-2.75 2.75zm-18.5-22.5c-.689 0-1.25.561-1.25 1.25v18.5c0 .689.561 1.25 1.25 1.25h18.5c.689 0 1.25-.561 1.25-1.25v-18.5c0-.689-.561-1.25-1.25-1.25z"/><path d="m12 19c-.414 0-.75-.336-.75-.75v-12.5c0-.414.336-.75.75-.75s.75.336.75.75v12.5c0 .414-.336.75-.75.75z"/><path d="m12 19c-.192 0-.384-.073-.53-.22l-4-4c-.293-.293-.293-.768 0-1.061s.768-.293 1.061 0l3.47 3.47 3.47-3.47c.293-.293.768-.293 1.061 0s.293.768 0 1.061l-4 4c-.148.147-.34.22-.532.22z"/></svg>