<svg enable-background="new 0 0 24 24" height="512" viewBox="0 0 24 24" width="512" xmlns="http://www.w3.org/2000/svg"><circle cx="12" cy="12" fill="#ffc107" r="7"/><path d="m12 20c-4.411 0-8-3.589-8-8s3.589-8 8-8 8 3.589 8 8-3.589 8-8 8zm0-14.5c-3.584 0-6.5 2.916-6.5 6.5s2.916 6.5 6.5 6.5 6.5-2.916 6.5-6.5-2.916-6.5-6.5-6.5z"/><path d="m12 3c-.414 0-.75-.336-.75-.75v-1.5c0-.414.336-.75.75-.75s.75.336.75.75v1.5c0 .414-.336.75-.75.75z"/><path d="m12 3c-.414 0-.75-.336-.75-.75v-1.5c0-.414.336-.75.75-.75s.75.336.75.75v1.5c0 .414-.336.75-.75.75z"/><path d="m12 3c-.414 0-.75-.336-.75-.75v-1.5c0-.414.336-.75.75-.75s.75.336.75.75v1.5c0 .414-.336.75-.75.75z"/><path d="m12 3c-.414 0-.75-.336-.75-.75v-1.5c0-.414.336-.75.75-.75s.75.336.75.75v1.5c0 .414-.336.75-.75.75z"/><path d="m3.556 7.875c-.127 0-.256-.032-.374-.101l-1.3-.75c-.359-.207-.482-.665-.275-1.024.206-.358.664-.482 1.024-.274l1.3.75c.359.207.482.665.275 1.024-.139.241-.391.375-.65.375z"/><path d="m21.742 18.375c-.127 0-.256-.032-.374-.101l-1.3-.75c-.358-.207-.481-.666-.274-1.024.206-.358.665-.483 1.024-.274l1.3.75c.358.207.481.666.274 1.024-.138.241-.39.375-.65.375z"/><path d="m3.556 7.875c-.127 0-.256-.032-.374-.101l-1.3-.75c-.359-.207-.482-.665-.275-1.024.206-.358.664-.482 1.024-.274l1.3.75c.359.207.482.665.275 1.024-.139.241-.391.375-.65.375z"/><path d="m21.742 18.375c-.127 0-.256-.032-.374-.101l-1.3-.75c-.358-.207-.481-.666-.274-1.024.206-.358.665-.483 1.024-.274l1.3.75c.358.207.481.666.274 1.024-.138.241-.39.375-.65.375z"/><path d="m3.556 7.875c-.127 0-.256-.032-.374-.101l-1.3-.75c-.359-.207-.482-.665-.275-1.024.206-.358.664-.482 1.024-.274l1.3.75c.359.207.482.665.275 1.024-.139.241-.391.375-.65.375z"/><path d="m21.742 18.375c-.127 0-.256-.032-.374-.101l-1.3-.75c-.358-.207-.481-.666-.274-1.024.206-.358.665-.483 1.024-.274l1.3.75c.358.207.481.666.274 1.024-.138.241-.39.375-.65.375z"/><path d="m3.556 7.875c-.127 0-.256-.032-.374-.101l-1.3-.75c-.359-.207-.482-.665-.275-1.024.206-.358.664-.482 1.024-.274l1.3.75c.359.207.482.665.275 1.024-.139.241-.391.375-.65.375z"/><path d="m21.742 18.375c-.127 0-.256-.032-.374-.101l-1.3-.75c-.358-.207-.481-.666-.274-1.024.206-.358.665-.483 1.024-.274l1.3.75c.358.207.481.666.274 1.024-.138.241-.39.375-.65.375z"/><path d="m2.258 18.375c-.26 0-.512-.134-.65-.375-.207-.359-.084-.817.274-1.024l1.3-.75c.36-.209.818-.084 1.024.274.207.359.084.817-.274 1.024l-1.3.75c-.118.069-.247.101-.374.101z"/><path d="m20.444 7.875c-.26 0-.512-.134-.65-.375-.207-.359-.084-.817.274-1.024l1.3-.75c.36-.208.819-.084 1.025.274.207.359.084.817-.274 1.024l-1.3.75c-.119.069-.248.101-.375.101z"/><path d="m2.258 18.375c-.26 0-.512-.134-.65-.375-.207-.359-.084-.817.274-1.024l1.3-.75c.36-.209.818-.084 1.024.274.207.359.084.817-.274 1.024l-1.3.75c-.118.069-.247.101-.374.101z"/><path d="m20.444 7.875c-.26 0-.512-.134-.65-.375-.207-.359-.084-.817.274-1.024l1.3-.75c.36-.208.819-.084 1.025.274.207.359.084.817-.274 1.024l-1.3.75c-.119.069-.248.101-.375.101z"/><path d="m2.258 18.375c-.26 0-.512-.134-.65-.375-.207-.359-.084-.817.274-1.024l1.3-.75c.36-.209.818-.084 1.024.274.207.359.084.817-.274 1.024l-1.3.75c-.118.069-.247.101-.374.101z"/><path d="m20.444 7.875c-.26 0-.512-.134-.65-.375-.207-.359-.084-.817.274-1.024l1.3-.75c.36-.208.819-.084 1.025.274.207.359.084.817-.274 1.024l-1.3.75c-.119.069-.248.101-.375.101z"/><path d="m2.258 18.375c-.26 0-.512-.134-.65-.375-.207-.359-.084-.817.274-1.024l1.3-.75c.36-.209.818-.084 1.024.274.207.359.084.817-.274 1.024l-1.3.75c-.118.069-.247.101-.374.101z"/><path d="m20.444 7.875c-.26 0-.512-.134-.65-.375-.207-.359-.084-.817.274-1.024l1.3-.75c.36-.208.819-.084 1.025.274.207.359.084.817-.274 1.024l-1.3.75c-.119.069-.248.101-.375.101z"/><path d="m12 24c-.414 0-.75-.336-.75-.75v-1.5c0-.414.336-.75.75-.75s.75.336.75.75v1.5c0 .414-.336.75-.75.75z"/></svg>