<svg enable-background="new 0 0 24 24" height="512" viewBox="0 0 24 24" width="512" xmlns="http://www.w3.org/2000/svg"><path d="m9.707 19.121c-.187.188-.442.293-.707.293s-.52-.105-.707-.293l-5.646-5.647c-.586-.586-.586-1.536 0-2.121l.707-.707c.586-.586 1.535-.586 2.121 0l3.525 3.525 9.525-9.525c.586-.586 1.536-.586 2.121 0l.707.707c.586.586.586 1.536 0 2.121z" fill="#2196f3"/><path d="m9 20.164c-.468 0-.907-.182-1.237-.512l-6-6.001c-.683-.683-.683-1.792 0-2.475l1.414-1.414c.682-.682 1.793-.682 2.475 0l3.348 3.349 9.349-9.349c.682-.682 1.793-.682 2.475 0l1.414 1.414c.331.33.513.77.513 1.237s-.182.907-.513 1.237l-12 12.001c-.331.331-.77.513-1.238.513zm.707-1.042h.01zm-5.293-8.372c-.064 0-.128.024-.177.073l-1.414 1.414c-.098.098-.098.256 0 .354l6 6.001c.094.094.26.094.354 0l12-12.001c.098-.098.098-.256 0-.354l-1.414-1.414c-.098-.098-.256-.098-.354 0l-9.879 9.879c-.293.293-.768.293-1.061 0l-3.879-3.879c-.048-.049-.111-.073-.176-.073z"/></svg>