<svg enable-background="new 0 0 24 24" height="512" viewBox="0 0 24 24" width="512" xmlns="http://www.w3.org/2000/svg"><path d="m19.302 12.73 1.781-2.481c.351-.498.421-1.129.186-1.689-.233-.556-.729-.948-1.324-1.045l-2.991-.481-.181-1.091.02-.02-.045-.127-.294-1.77c-.098-.599-.492-1.094-1.054-1.327-.283-.118-.583-.157-.875-.123-.342.009-.678.107-.968.315l-2.377 1.72-2.401-1.725c-.29-.205-.626-.301-.966-.31-.294-.034-.595.005-.878.124-.557.233-.948.729-1.046 1.324l-.481 2.991-3.008.499c-.599.099-1.094.493-1.327 1.054-.234.562-.161 1.193.193 1.687l1.776 2.454-1.781 2.481c-.351.498-.421 1.13-.187 1.689.234.557.729.947 1.324 1.045l2.991.481.5 3.008c.097.597.489 1.092 1.045 1.326.283.119.585.158.878.124.341-.009.678-.107.972-.314l2.372-1.703.019-.007 2.382 1.71c.303.216.655.327 1.013.327.227 0 .454-.044.673-.135.561-.233.956-.729 1.054-1.326l.481-2.991 1.091-.181.176.176.963-.339.934-.156c.599-.098 1.095-.492 1.328-1.054.234-.563.161-1.192-.193-1.686z" fill="#ffc107"/><path d="m15.189 24.001c-.354 0-.703-.11-1.002-.324l-2.803-2.012c-.073-.051-.194-.048-.281.009l-2.79 2.003c-.5.351-1.125.42-1.677.188-.55-.23-.937-.721-1.034-1.311l-.566-3.407c-.016-.094-.09-.168-.185-.184l-3.408-.566c-.589-.097-1.079-.483-1.31-1.034-.232-.554-.163-1.178.185-1.671l2.015-2.809c.05-.073.05-.194-.009-.281l-2-2.789c-.351-.488-.421-1.112-.191-1.668s.721-.945 1.313-1.042l3.407-.566c.094-.016.168-.09.184-.184l.566-3.408c.097-.59.483-1.08 1.034-1.31.553-.232 1.178-.163 1.671.185l2.808 2.016c.08.058.189.058.269-.001l2.801-2.011c.489-.349 1.112-.422 1.668-.19.556.23.945.721 1.043 1.312l.19 1.145c.068.408-.208.795-.617.863-.407.064-.795-.208-.863-.617l-.19-1.146c-.017-.108-.093-.155-.137-.172s-.13-.04-.219.023l-2.802 2.012c-.604.432-1.413.431-2.016.001l-2.805-2.013c-.089-.063-.178-.044-.221-.023-.052.021-.117.068-.134.17l-.567 3.41c-.121.727-.69 1.297-1.417 1.418l-3.409.566c-.107.018-.153.093-.171.137-.019.044-.04.131.023.219l1.972 2.743c.457.667.457 1.468.049 2.062l-2.021 2.816c-.063.09-.042.178-.024.222.022.052.069.117.171.134l3.41.566c.727.121 1.296.691 1.417 1.418l.566 3.408c.017.104.083.15.134.172.043.018.131.039.227-.027l2.797-2.008c.609-.417 1.409-.417 2.004-.009l2.816 2.021c.088.063.174.041.219.023.043-.018.12-.064.137-.171l.567-3.409c.121-.727.69-1.297 1.417-1.418l3.409-.566c.103-.017.15-.082.172-.134.018-.044.04-.132-.027-.228l-2.008-2.797c-.241-.337-.165-.806.172-1.047.337-.239.806-.165 1.047.172l2.012 2.803c.351.499.42 1.123.188 1.677-.231.551-.721.938-1.311 1.034l-3.407.566c-.094.016-.168.09-.184.184l-.566 3.408c-.097.591-.487 1.081-1.042 1.312-.216.091-.442.135-.666.135z"/><path d="m12.25 15.5c-.192 0-.384-.073-.53-.22l-4.5-4.5c-.293-.293-.293-.768 0-1.061s.768-.293 1.061 0l3.97 3.97 10.469-10.469c.293-.293.768-.293 1.061 0s.293.768 0 1.061l-11 11c-.147.146-.339.219-.531.219z"/></svg>