<svg enable-background="new 0 0 24 24" height="512" viewBox="0 0 24 24" width="512" xmlns="http://www.w3.org/2000/svg"><path d="m18.25 23.304h-15.554c-1.105 0-2-.895-2-2v-15.554c0-1.105.895-2 2-2h15.554c1.105 0 2 .895 2 2v15.554c0 1.105-.895 2-2 2z" fill="#2196f3"/><path d="m18.25 24h-15.5c-1.517 0-2.75-1.233-2.75-2.75v-15.5c0-1.517 1.233-2.75 2.75-2.75h12.5c.414 0 .75.336.75.75s-.336.75-.75.75h-12.5c-.689 0-1.25.561-1.25 1.25v15.5c0 .689.561 1.25 1.25 1.25h15.5c.689 0 1.25-.561 1.25-1.25v-8.5c0-.414.336-.75.75-.75s.75.336.75.75v8.5c0 1.517-1.233 2.75-2.75 2.75z"/><path d="m12.25 15.5c-.192 0-.384-.073-.53-.22l-4.5-4.5c-.293-.293-.293-.768 0-1.061s.768-.293 1.061 0l3.97 3.97 10.469-10.469c.293-.293.768-.293 1.061 0s.293.768 0 1.061l-11 11c-.147.146-.339.219-.531.219z"/></svg>