<svg enable-background="new 0 0 24 24" height="512" viewBox="0 0 24 24" width="512" xmlns="http://www.w3.org/2000/svg"><path d="m12 0c-6.617 0-12 5.383-12 12s5.383 12 12 12 12-5.383 12-12-5.383-12-12-12z" fill="#607d8b"/><path d="m12 6.25c-.414 0-.75-.336-.75-.75v-2c0-.414.336-.75.75-.75s.75.336.75.75v2c0 .414-.336.75-.75.75z"/><path d="m12 21.25c-.414 0-.75-.336-.75-.75v-2c0-.414.336-.75.75-.75s.75.336.75.75v2c0 .414-.336.75-.75.75z"/><path d="m6.37 9.5c-.127 0-.256-.032-.374-.101l-1.732-1c-.359-.207-.482-.665-.275-1.024.207-.358.664-.483 1.024-.274l1.732 1c.358.207.481.666.274 1.024-.137.241-.389.375-.649.375z"/><path d="m19.36 17c-.127 0-.256-.032-.374-.101l-1.732-1c-.358-.207-.481-.666-.274-1.024.206-.359.665-.482 1.024-.274l1.732 1c.358.207.481.666.274 1.024-.138.241-.39.375-.65.375z"/><path d="m4.64 17c-.26 0-.512-.134-.65-.375-.207-.359-.084-.817.274-1.024l1.732-1c.359-.208.818-.084 1.024.274.207.359.084.817-.274 1.024l-1.732 1c-.118.069-.247.101-.374.101z"/><path d="m17.63 9.5c-.26 0-.512-.134-.65-.375-.207-.359-.084-.817.274-1.024l1.732-1c.359-.209.817-.084 1.024.274.207.359.084.817-.274 1.024l-1.732 1c-.118.069-.247.101-.374.101z"/><path d="m12 24c-6.617 0-12-5.383-12-12s5.383-12 12-12 12 5.383 12 12-5.383 12-12 12zm0-22.5c-5.79 0-10.5 4.71-10.5 10.5s4.71 10.5 10.5 10.5 10.5-4.71 10.5-10.5-4.71-10.5-10.5-10.5z"/></svg>