<svg enable-background="new 0 0 24 24" height="512" viewBox="0 0 24 24" width="512" xmlns="http://www.w3.org/2000/svg"><path d="m20.132 17.303-13.435-13.435c-.586-.586-1.536-.586-2.121 0l-.708.707c-.586.586-.586 1.536 0 2.121l13.435 13.435c.586.586 1.536.586 2.121 0l.707-.707c.587-.585.587-1.535.001-2.121z" fill="#f44336"/><path d="m17.303 3.868-13.435 13.435c-.586.586-.586 1.536 0 2.121l.707.707c.586.586 1.536.586 2.121 0l13.436-13.434c.586-.586.586-1.536 0-2.121l-.707-.707c-.586-.587-1.536-.587-2.122-.001z" fill="#f44336"/><path d="m18.01 20.823c-.448 0-.897-.171-1.239-.512l-4.771-4.77-4.77 4.77c-.686.684-1.797.684-2.48 0l-1.061-1.061c-.683-.683-.684-1.796-.001-2.479l4.771-4.771-4.77-4.77c-.684-.684-.684-1.797 0-2.48l1.061-1.061c.683-.683 1.795-.684 2.479-.001l4.771 4.772 4.77-4.771c.686-.684 1.797-.684 2.48 0l1.061 1.061c.684.684.684 1.797 0 2.48l-4.77 4.77 4.77 4.77s.001 0 .001.001c.683.684.682 1.797-.001 2.479l-1.061 1.061c-.342.341-.791.512-1.24.512zm-6.01-7.093c.192 0 .384.073.53.22l5.3 5.3c.098.098.262.098.359 0l1.061-1.061c.098-.098.097-.262-.001-.36l-5.299-5.299c-.293-.293-.293-.768 0-1.061l5.3-5.3c.098-.098.098-.262 0-.359l-1.061-1.06c-.098-.098-.261-.097-.36.001l-5.299 5.3c-.281.281-.779.281-1.061 0l-5.299-5.301c-.098-.098-.262-.098-.359 0l-1.061 1.061c-.098.098-.098.262 0 .359l5.3 5.3c.293.293.293.768 0 1.061l-5.3 5.3c-.097.098-.098.262 0 .359l1.061 1.061c.098.098.261.097.36-.001l5.299-5.299c.146-.147.338-.221.53-.221z"/></svg>