<svg enable-background="new 0 0 24 24" height="512" viewBox="0 0 24 24" width="512" xmlns="http://www.w3.org/2000/svg"><path d="m4.862 3.25h-.715c-1.399 0-2.536 1.138-2.536 2.536v14.756c0 1.399 1.138 2.536 2.536 2.536h11.067c1.399 0 2.536-1.138 2.536-2.536v-17.292s-12.893.078-12.888 0z" fill="#2196f3"/><path d="m17.5.419h-9.125c-1.105 0-2 .895-2 2v14.162c0 1.105.895 2 2 2h12.25c1.105 0 2-.895 2-2v-14.162c0-1.105-.895-2-2-2z" fill="#eceff1"/><path d="m20.25 19h-11.5c-1.517 0-2.75-1.233-2.75-2.75v-13.5c0-1.517 1.233-2.75 2.75-2.75h11.5c1.517 0 2.75 1.233 2.75 2.75v13.5c0 1.517-1.233 2.75-2.75 2.75zm-11.5-17.5c-.689 0-1.25.561-1.25 1.25v13.5c0 .689.561 1.25 1.25 1.25h11.5c.689 0 1.25-.561 1.25-1.25v-13.5c0-.689-.561-1.25-1.25-1.25z"/><path d="m15.75 24h-12c-1.517 0-2.75-1.233-2.75-2.75v-16c0-1.517 1.233-2.75 2.75-2.75h.5c.414 0 .75.336.75.75s-.336.75-.75.75h-.5c-.689 0-1.25.561-1.25 1.25v16c0 .689.561 1.25 1.25 1.25h12c.689 0 1.25-.561 1.25-1.25v-.5c0-.414.336-.75.75-.75s.75.336.75.75v.5c0 1.517-1.233 2.75-2.75 2.75z"/><path d="m18.25 8.5h-7.5c-.414 0-.75-.336-.75-.75s.336-.75.75-.75h7.5c.414 0 .75.336.75.75s-.336.75-.75.75z"/><path d="m18.25 11.5h-7.5c-.414 0-.75-.336-.75-.75s.336-.75.75-.75h7.5c.414 0 .75.336.75.75s-.336.75-.75.75z"/><path d="m18.25 14.5h-7.5c-.414 0-.75-.336-.75-.75s.336-.75.75-.75h7.5c.414 0 .75.336.75.75s-.336.75-.75.75z"/></svg>