<svg enable-background="new 0 0 24 24" height="512" viewBox="0 0 24 24" width="512" xmlns="http://www.w3.org/2000/svg"><circle cx="5" cy="20" fill="#607d8b" r="3.25"/><circle cx="19" cy="20" fill="#90a4ae" r="3.25"/><path d="m5 24c-2.206 0-4-1.794-4-4s1.794-4 4-4 4 1.794 4 4c0 .684-.176 1.358-.508 1.952-.707 1.263-2.045 2.048-3.492 2.048zm0-6.5c-1.379 0-2.5 1.122-2.5 2.5s1.121 2.5 2.5 2.5c.904 0 1.741-.491 2.184-1.281.207-.37.316-.791.316-1.219 0-1.378-1.121-2.5-2.5-2.5z"/><path d="m7.837 22.335c-.124 0-.249-.031-.365-.096-.361-.202-.49-.659-.288-1.021l11.662-20.834c.203-.362.659-.489 1.021-.288.361.202.49.659.288 1.021l-11.663 20.835c-.138.245-.392.383-.655.383z"/><path d="m19 24c-1.447 0-2.785-.785-3.492-2.048-.332-.594-.508-1.268-.508-1.952 0-2.206 1.794-4 4-4s4 1.794 4 4-1.794 4-4 4zm0-6.5c-1.379 0-2.5 1.122-2.5 2.5 0 .428.109.849.316 1.219.443.79 1.28 1.281 2.184 1.281 1.379 0 2.5-1.122 2.5-2.5s-1.121-2.5-2.5-2.5z"/><path d="m16.163 22.335c-.263 0-.518-.138-.655-.384l-11.662-20.835c-.202-.361-.074-.818.288-1.02.362-.201.818-.074 1.021.288l11.662 20.835c.202.361.073.818-.288 1.021-.117.065-.242.095-.366.095z"/></svg>