<svg enable-background="new 0 0 24 24" height="512" viewBox="0 0 24 24" width="512" xmlns="http://www.w3.org/2000/svg"><path d="m9.25 0h-7.5c-.965 0-1.75.785-1.75 1.75v4.5c0 .965.785 1.75 1.75 1.75h7.5c.965 0 1.75-.785 1.75-1.75v-4.5c0-.965-.785-1.75-1.75-1.75z" fill="#2196f3"/><path d="m9.25 10h-7.5c-.965 0-1.75.785-1.75 1.75v10.5c0 .965.785 1.75 1.75 1.75h7.5c.965 0 1.75-.785 1.75-1.75v-10.5c0-.965-.785-1.75-1.75-1.75z" fill="#1976d2"/><path d="m22.25 16h-7.5c-.965 0-1.75.785-1.75 1.75v4.5c0 .965.785 1.75 1.75 1.75h7.5c.965 0 1.75-.785 1.75-1.75v-4.5c0-.965-.785-1.75-1.75-1.75z" fill="#2196f3"/><path d="m22.25 0h-7.5c-.965 0-1.75.785-1.75 1.75v10.5c0 .965.785 1.75 1.75 1.75h7.5c.965 0 1.75-.785 1.75-1.75v-10.5c0-.965-.785-1.75-1.75-1.75z" fill="#1976d2"/><path d="m9.25 8h-7.5c-.965 0-1.75-.785-1.75-1.75v-4.5c0-.965.785-1.75 1.75-1.75h7.5c.965 0 1.75.785 1.75 1.75v4.5c0 .965-.785 1.75-1.75 1.75zm-7.5-6.5c-.138 0-.25.112-.25.25v4.5c0 .138.112.25.25.25h7.5c.138 0 .25-.112.25-.25v-4.5c0-.138-.112-.25-.25-.25z"/><path d="m9.25 24h-7.5c-.965 0-1.75-.785-1.75-1.75v-10.5c0-.965.785-1.75 1.75-1.75h7.5c.965 0 1.75.785 1.75 1.75v10.5c0 .965-.785 1.75-1.75 1.75zm-7.5-12.5c-.138 0-.25.112-.25.25v10.5c0 .138.112.25.25.25h7.5c.138 0 .25-.112.25-.25v-10.5c0-.138-.112-.25-.25-.25z"/><path d="m22.25 24h-7.5c-.965 0-1.75-.785-1.75-1.75v-4.5c0-.965.785-1.75 1.75-1.75h7.5c.965 0 1.75.785 1.75 1.75v4.5c0 .965-.785 1.75-1.75 1.75zm-7.5-6.5c-.138 0-.25.112-.25.25v4.5c0 .138.112.25.25.25h7.5c.138 0 .25-.112.25-.25v-4.5c0-.138-.112-.25-.25-.25z"/><path d="m22.25 14h-7.5c-.965 0-1.75-.785-1.75-1.75v-10.5c0-.965.785-1.75 1.75-1.75h7.5c.965 0 1.75.785 1.75 1.75v10.5c0 .965-.785 1.75-1.75 1.75zm-7.5-12.5c-.138 0-.25.112-.25.25v10.5c0 .138.112.25.25.25h7.5c.138 0 .25-.112.25-.25v-10.5c0-.138-.112-.25-.25-.25z"/></svg>