<svg enable-background="new 0 0 24 24" height="512" viewBox="0 0 24 24" width="512" xmlns="http://www.w3.org/2000/svg"><path d="m21.25 0h-18.5c-1.517 0-2.75 1.233-2.75 2.75v18.5c0 1.517 1.233 2.75 2.75 2.75h18.5c1.517 0 2.75-1.233 2.75-2.75v-18.5c0-1.517-1.233-2.75-2.75-2.75z" fill="#2196f3"/><g fill="#fafafa"><path d="m11 19.25c0 .965-.785 1.75-1.75 1.75h-4.5c-.965 0-1.75-.785-1.75-1.75v-6.5c0-.965.785-1.75 1.75-1.75h4.5c.965 0 1.75.785 1.75 1.75z"/><path d="m11 7.25c0 .965-.785 1.75-1.75 1.75h-4.5c-.965 0-1.75-.785-1.75-1.75v-2.5c0-.965.785-1.75 1.75-1.75h4.5c.965 0 1.75.785 1.75 1.75z"/><path d="m21 19.25c0 .965-.785 1.75-1.75 1.75h-4.5c-.965 0-1.75-.785-1.75-1.75v-2.5c0-.965.785-1.75 1.75-1.75h4.5c.965 0 1.75.785 1.75 1.75z"/><path d="m21 11.25c0 .965-.785 1.75-1.75 1.75h-4.5c-.965 0-1.75-.785-1.75-1.75v-6.5c0-.965.785-1.75 1.75-1.75h4.5c.965 0 1.75.785 1.75 1.75z"/></g><path d="m9.25 9h-4.5c-.965 0-1.75-.785-1.75-1.75v-2.5c0-.965.785-1.75 1.75-1.75h4.5c.965 0 1.75.785 1.75 1.75v2.5c0 .965-.785 1.75-1.75 1.75zm-4.5-4.5c-.138 0-.25.112-.25.25v2.5c0 .138.112.25.25.25h4.5c.138 0 .25-.112.25-.25v-2.5c0-.138-.112-.25-.25-.25z"/><path d="m19.25 21h-4.5c-.965 0-1.75-.785-1.75-1.75v-2.5c0-.965.785-1.75 1.75-1.75h4.5c.965 0 1.75.785 1.75 1.75v2.5c0 .965-.785 1.75-1.75 1.75zm-4.5-4.5c-.138 0-.25.112-.25.25v2.5c0 .138.112.25.25.25h4.5c.138 0 .25-.112.25-.25v-2.5c0-.138-.112-.25-.25-.25z"/><path d="m19.25 13h-4.5c-.965 0-1.75-.785-1.75-1.75v-6.5c0-.965.785-1.75 1.75-1.75h4.5c.965 0 1.75.785 1.75 1.75v6.5c0 .965-.785 1.75-1.75 1.75zm-4.5-8.5c-.138 0-.25.112-.25.25v6.5c0 .138.112.25.25.25h4.5c.138 0 .25-.112.25-.25v-6.5c0-.138-.112-.25-.25-.25z"/><path d="m9.25 21h-4.5c-.965 0-1.75-.785-1.75-1.75v-6.5c0-.965.785-1.75 1.75-1.75h4.5c.965 0 1.75.785 1.75 1.75v6.5c0 .965-.785 1.75-1.75 1.75zm-4.5-8.5c-.138 0-.25.112-.25.25v6.5c0 .138.112.25.25.25h4.5c.138 0 .25-.112.25-.25v-6.5c0-.138-.112-.25-.25-.25z"/><path d="m21.25 24h-18.5c-1.517 0-2.75-1.233-2.75-2.75v-18.5c0-1.517 1.233-2.75 2.75-2.75h18.5c1.517 0 2.75 1.233 2.75 2.75v18.5c0 1.517-1.233 2.75-2.75 2.75zm-18.5-22.5c-.689 0-1.25.561-1.25 1.25v18.5c0 .689.561 1.25 1.25 1.25h18.5c.689 0 1.25-.561 1.25-1.25v-18.5c0-.689-.561-1.25-1.25-1.25z"/></svg>