<svg enable-background="new 0 0 24 24" height="512" viewBox="0 0 24 24" width="512" xmlns="http://www.w3.org/2000/svg"><path d="m23.269 10.582-4.409-7.25c-.495-.815-1.396-1.321-2.35-1.321h-9c-.954 0-1.854.506-2.35 1.321l-4.409 7.25c-.536.881-.536 1.976 0 2.857l4.409 7.25c.495.815 1.396 1.321 2.35 1.321h9.001c.954 0 1.854-.506 2.35-1.321l4.409-7.25c.535-.881.535-1.976-.001-2.857z" fill="#607d8b"/><path d="m8.288 16.463c-.192 0-.384-.073-.53-.22-.293-.293-.293-.768 0-1.061l7.425-7.425c.293-.293.768-.293 1.061 0s.293.768 0 1.061l-7.425 7.425c-.148.147-.34.22-.531.22z"/><path d="m15.712 16.463c-.192 0-.384-.073-.53-.22l-7.425-7.425c-.293-.293-.293-.768 0-1.061s.768-.293 1.061 0l7.425 7.425c.293.293.293.768 0 1.061-.147.147-.339.22-.531.22z"/><path d="m17.635 22.011h-11.25c-.262 0-.505-.137-.641-.36l-5.624-9.251c-.146-.239-.146-.54 0-.779l5.625-9.25c.136-.224.379-.36.641-.36h11.25c.262 0 .505.137.641.36l5.625 9.25c.146.239.146.54 0 .779l-5.625 9.25c-.137.224-.38.361-.642.361zm-10.828-1.5h10.406l5.169-8.5-5.169-8.5h-10.406l-5.169 8.5z"/></svg>