<svg enable-background="new 0 0 24 24" height="512" viewBox="0 0 24 24" width="512" xmlns="http://www.w3.org/2000/svg"><path d="m16.084 12.274c-.128-.31-.431-.512-.766-.512h-2.488-1.66-2.488c-.335 0-.638.202-.766.512s-.058.667.18.904l3.318 3.318c.324.324.849.324 1.173 0l3.318-3.318c.237-.238.308-.594.179-.904z" fill="#4caf50"/><path d="m12 13c-.414 0-.75-.336-.75-.75v-11.5c0-.414.336-.75.75-.75s.75.336.75.75v11.5c0 .414-.336.75-.75.75z"/><path d="m12 17c-.192 0-.384-.073-.53-.22l-4-4c-.215-.215-.278-.537-.163-.817.116-.28.389-.463.693-.463h8c.304 0 .577.183.693.463.115.28.052.603-.163.817l-4 4c-.146.147-.338.22-.53.22zm-2.189-4 2.189 2.189 2.189-2.189z"/><path d="m21.25 24h-18.5c-1.517 0-2.75-1.233-2.75-2.75v-4.5c0-.414.336-.75.75-.75s.75.336.75.75v4.5c0 .689.561 1.25 1.25 1.25h18.5c.689 0 1.25-.561 1.25-1.25v-4.5c0-.414.336-.75.75-.75s.75.336.75.75v4.5c0 1.517-1.233 2.75-2.75 2.75z"/></svg>