<svg enable-background="new 0 0 24 24" height="512" viewBox="0 0 24 24" width="512" xmlns="http://www.w3.org/2000/svg"><path d="m22.25 0h-20.5c-.965 0-1.75.785-1.75 1.75v2.315c0 .488.206.958.567 1.291l8.027 7.353c.259.235.406.571.406.921v9.62c0 .276.152.531.396.661.111.06.233.089.354.089.146 0 .291-.042.416-.126l4.055-2.703c.488-.325.779-.87.779-1.456v-6.085c0-.35.147-.686.406-.922l8.027-7.354c.361-.331.567-.801.567-1.289v-2.315c0-.965-.785-1.75-1.75-1.75z" fill="#4caf50"/><path d="m9.75 24c-.121 0-.243-.029-.354-.089-.244-.13-.396-.385-.396-.661v-9.62c0-.35-.147-.686-.405-.921l-8.028-7.354c-.361-.332-.567-.802-.567-1.29v-2.315c0-.965.785-1.75 1.75-1.75h20.5c.965 0 1.75.785 1.75 1.75v2.315c0 .488-.206.958-.566 1.29l-8.027 7.354c-.26.236-.407.572-.407.921v6.084c0 .586-.291 1.131-.779 1.456l-4.055 2.703c-.125.085-.27.127-.416.127zm-8-22.5c-.138 0-.25.112-.25.25v2.315c0 .07.03.137.082.185l8.025 7.353c.567.52.893 1.258.893 2.028v8.218l2.889-1.926c.069-.046.111-.124.111-.208v-6.085c0-.77.325-1.508.894-2.028l8.025-7.354c.051-.046.081-.113.081-.183v-2.315c0-.138-.112-.25-.25-.25z"/></svg>