<svg enable-background="new 0 0 24 24" height="512" viewBox="0 0 24 24" width="512" xmlns="http://www.w3.org/2000/svg"><path d="m19.25 0h-15.5c-.414 0-.75.336-.75.75v11.5c0 .414.336.75.75.75h15.5c.965 0 1.75-.785 1.75-1.75v-9.5c0-.965-.785-1.75-1.75-1.75z" fill="#4caf50"/><path d="m3.75 24c-.414 0-.75-.336-.75-.75v-22.5c0-.414.336-.75.75-.75s.75.336.75.75v22.5c0 .414-.336.75-.75.75z"/><path d="m19.25 13h-15.5c-.414 0-.75-.336-.75-.75s.336-.75.75-.75h15.5c.138 0 .25-.112.25-.25v-9.5c0-.138-.112-.25-.25-.25h-15.5c-.414 0-.75-.336-.75-.75s.336-.75.75-.75h15.5c.965 0 1.75.785 1.75 1.75v9.5c0 .965-.785 1.75-1.75 1.75z"/></svg>