<svg enable-background="new 0 0 24 24" height="512" viewBox="0 0 24 24" width="512" xmlns="http://www.w3.org/2000/svg"><path d="m23.25 2.75h-22.5c-.414 0-.75.336-.75.75v3.318c0 .819.36 1.589.99 2.113l7.56 6.296c.286.238.45.588.45.96v7.063c0 .276.152.531.396.661.111.06.233.089.354.089.146 0 .291-.042.416-.126l4.055-2.703c.488-.325.779-.87.779-1.456v-3.528c0-.372.164-.722.449-.96l7.562-6.296c.629-.524.989-1.294.989-2.113v-3.318c0-.414-.336-.75-.75-.75z" fill="#2196f3"/><path d="m12 .146c-4.271 0-11.5.706-11.5 3.354s7.229 3.354 11.5 3.354 11.5-.706 11.5-3.354-7.229-3.354-11.5-3.354z" fill="#1976d2"/><path d="m9.75 24c-.121 0-.243-.029-.354-.089-.244-.13-.396-.385-.396-.661v-7.062c0-.373-.164-.723-.45-.961l-7.56-6.296c-.63-.524-.99-1.294-.99-2.113v-3.318c0-.414.336-.75.75-.75s.75.336.75.75v3.318c0 .372.164.722.45.96l7.56 6.296c.63.524.99 1.294.99 2.113v5.661l2.889-1.926c.069-.046.111-.124.111-.208v-3.527c0-.819.36-1.589.989-2.113l7.562-6.296c.285-.238.449-.588.449-.96v-3.318c0-.414.336-.75.75-.75s.75.336.75.75v3.318c0 .819-.36 1.589-.989 2.113l-7.562 6.296c-.285.238-.449.588-.449.961v3.527c0 .586-.291 1.131-.779 1.456l-4.055 2.703c-.125.084-.27.126-.416.126z"/><path d="m12 7c-4.457 0-12-.737-12-3.5s7.543-3.5 12-3.5 12 .737 12 3.5-7.543 3.5-12 3.5zm0-5.5c-6.534 0-10.31 1.31-10.501 2.012.19.678 3.966 1.988 10.501 1.988 6.499 0 10.269-1.295 10.498-2-.229-.705-4-2-10.498-2zm10.501 2.012h.01z"/></svg>