<svg enable-background="new 0 0 24 24" height="512" viewBox="0 0 24 24" width="512" xmlns="http://www.w3.org/2000/svg"><path d="m23.322 15.94c.432-1.236.678-2.559.678-3.94 0-6.617-5.383-12-12-12s-12 5.383-12 12c0 1.381.246 2.704.678 3.94.015.055.031.107.057.157 1.68 4.602 6.088 7.903 11.265 7.903s9.585-3.301 11.265-7.904c.026-.049.042-.101.057-.156z" fill="#607d8b"/><path d="m12 1.35c6.065 0 11 4.934 11 11 0 1.149-.179 2.258-.507 3.3h-20.986c-.328-1.042-.507-2.151-.507-3.3 0-6.066 4.935-11 11-11z" fill="#fff"/><path d="m13 12.653h-2c-1.343.375-2.382 1.472-2.666 2.847h7.331c-.283-1.375-1.322-2.473-2.665-2.847z" fill="#f44336"/><path d="m12 24c-6.617 0-12-5.383-12-12s5.383-12 12-12 12 5.383 12 12-5.383 12-12 12zm0-22.5c-5.79 0-10.5 4.71-10.5 10.5s4.71 10.5 10.5 10.5 10.5-4.71 10.5-10.5-4.71-10.5-10.5-10.5z"/><path d="m15 16.5c-.414 0-.75-.336-.75-.75 0-1.241-1.01-2.25-2.25-2.25s-2.25 1.009-2.25 2.25c0 .414-.336.75-.75.75s-.75-.336-.75-.75c0-2.068 1.683-3.75 3.75-3.75s3.75 1.682 3.75 3.75c0 .414-.336.75-.75.75z"/><path d="m22.61 16.5h-21.22c-.414 0-.75-.336-.75-.75s.336-.75.75-.75h21.22c.414 0 .75.336.75.75s-.336.75-.75.75z"/><path d="m12 13.5c-.414 0-.75-.336-.75-.75v-7c0-.414.336-.75.75-.75s.75.336.75.75v7c0 .414-.336.75-.75.75z"/></svg>