<svg enable-background="new 0 0 24 24" height="512" viewBox="0 0 24 24" width="512" xmlns="http://www.w3.org/2000/svg"><path d="m20.76 10.76-5.417-4.07c-.034-.027-.093-.088-.093-.19s.059-.163.08-.181l5.431-4.08c.311-.234.489-.595.489-.99 0-.688-.561-1.249-1.25-1.249h-16.25c-.414 0-.75.336-.75.75v11.5c0 .414.336.75.75.75h16.25c.689 0 1.25-.561 1.25-1.25 0-.395-.179-.755-.49-.99z" fill="#ffc107"/><path d="m3.75 24c-.414 0-.75-.336-.75-.75v-22.5c0-.414.336-.75.75-.75s.75.336.75.75v22.5c0 .414-.336.75-.75.75z"/><path d="m20 13h-16.25c-.414 0-.75-.336-.75-.75s.336-.75.75-.75h15.497l-4.817-3.62c-.437-.342-.68-.842-.68-1.38s.243-1.037.667-1.37l4.831-3.63h-15.498c-.414 0-.75-.336-.75-.75s.336-.75.75-.75h16.25c.689 0 1.25.561 1.25 1.25 0 .396-.179.757-.491.991l-5.429 4.079c-.021.018-.08.079-.08.18 0 .102.059.163.093.19l5.417 4.07c.312.232.49.593.49.989 0 .69-.561 1.251-1.25 1.251zm0-11.5h.01zm-.141-.459c-.001 0-.001 0 0 0z"/></svg>