<svg enable-background="new 0 0 24 24" height="512" viewBox="0 0 24 24" width="512" xmlns="http://www.w3.org/2000/svg"><path d="m24 2.75v9.25h-4.2c-.79 0-1.51.46-1.83 1.18l-2.56 5.73c-.15.35-.5.59-.91.59-.45 0-.83-.3-.96-.71l-4.08-13.58c-.13-.41-.51-.71-.96-.71s-.83.3-.96.71l-1.61 5.37c-.26.84-1.03 1.42-1.92 1.42h-4.01v-9.25c0-1.52 1.23-2.75 2.75-2.75h18.5c1.52 0 2.75 1.23 2.75 2.75z" fill="#eceff1"/><path d="m24 12v9.25c0 1.52-1.23 2.75-2.75 2.75h-18.5c-1.52 0-2.75-1.23-2.75-2.75v-9.25h4.01c.89 0 1.66-.58 1.92-1.42l1.61-5.37c.13-.41.51-.71.96-.71s.83.3.96.71l4.08 13.58c.13.41.51.71.96.71.41 0 .76-.24.91-.59l2.56-5.73c.32-.72 1.04-1.18 1.83-1.18z" fill="#4caf50"/><path d="m21.25 24h-18.5c-1.517 0-2.75-1.233-2.75-2.75v-18.5c0-1.517 1.233-2.75 2.75-2.75h18.5c1.517 0 2.75 1.233 2.75 2.75v18.5c0 1.517-1.233 2.75-2.75 2.75zm-18.5-22.5c-.689 0-1.25.561-1.25 1.25v18.5c0 .689.561 1.25 1.25 1.25h18.5c.689 0 1.25-.561 1.25-1.25v-18.5c0-.689-.561-1.25-1.25-1.25z"/><path d="m14.5 20.25c-.769 0-1.441-.496-1.675-1.233l-4.084-13.591c-.024-.079-.113-.176-.241-.176s-.217.097-.245.187l-1.606 5.359c-.363 1.171-1.422 1.954-2.639 1.954h-3.26c-.414 0-.75-.336-.75-.75s.336-.75.75-.75h3.26c.555 0 1.038-.358 1.203-.892l1.608-5.364c.238-.748.911-1.244 1.679-1.244s1.441.496 1.675 1.233l4.084 13.591c.025.082.112.176.241.176.12 0 .192-.07.221-.136l2.564-5.74c.438-.986 1.426-1.625 2.515-1.625h3.45c.414 0 .75.336.75.75s-.336.75-.75.75h-3.45c-.497 0-.946.289-1.145.735l-2.561 5.731c-.267.625-.895 1.035-1.594 1.035z"/></svg>