<svg enable-background="new 0 0 24 24" height="512" viewBox="0 0 24 24" width="512" xmlns="http://www.w3.org/2000/svg"><path d="m17.381 1c-2.165 0-4.156 1.047-5.381 2.753-1.225-1.706-3.216-2.753-5.381-2.753-3.649 0-6.619 2.964-6.619 6.607 0 6.481 9.895 14.209 10.784 14.891.318.32.756.502 1.216.502s.898-.182 1.216-.502c.889-.682 10.784-8.41 10.784-14.891 0-3.643-2.97-6.607-6.619-6.607z" fill="#ffc107"/><path d="m12 23c-.459 0-.898-.182-1.216-.501-.887-.68-10.784-8.41-10.784-14.892 0-3.643 2.97-6.607 6.62-6.607 2.164 0 4.156 1.047 5.38 2.753 1.224-1.706 3.216-2.753 5.38-2.753 3.65 0 6.62 2.964 6.62 6.607 0 6.482-9.897 14.211-10.784 14.891-.318.32-.757.502-1.216.502zm-5.38-20.5c-2.823 0-5.12 2.291-5.12 5.107 0 5.904 10.137 13.655 10.239 13.733.038.028.072.06.104.095.054.059.261.059.314 0 .031-.035.066-.067.104-.095.102-.077 10.239-7.834 10.239-13.733 0-2.816-2.297-5.107-5.12-5.107-2.042 0-3.883 1.203-4.692 3.063-.238.548-1.138.548-1.376 0-.809-1.86-2.651-3.063-4.692-3.063z"/></svg>