<svg enable-background="new 0 0 24 24" height="512" viewBox="0 0 24 24" width="512" xmlns="http://www.w3.org/2000/svg"><path d="m23.62 10.85-11.1-10.64c-.29-.28-.75-.28-1.04 0l-11.11 10.65c-.24.23-.37.56-.37.89 0 .69.56 1.25 1.25 1.25h1.75v9c0 1.1.9 2 2 2h14c1.1 0 2-.9 2-2v-9h1.75c.69 0 1.25-.56 1.25-1.25 0-.33-.13-.66-.38-.9z" fill="#4caf50"/><path d="m18.75 24h-13.5c-1.241 0-2.25-1.009-2.25-2.25v-8.75h-1.75c-.689 0-1.25-.561-1.25-1.25 0-.331.135-.655.37-.89l11.111-10.652c.29-.278.748-.278 1.038 0l11.1 10.64c.246.247.381.571.381.902 0 .689-.561 1.25-1.25 1.25h-1.75v8.75c0 1.241-1.009 2.25-2.25 2.25zm-16.881-12.5h1.881c.414 0 .75.336.75.75v9.5c0 .414.336.75.75.75h13.5c.414 0 .75-.336.75-.75v-9.5c0-.414.336-.75.75-.75h1.881l-10.131-9.711zm20.701.42h.01z"/></svg>