<svg enable-background="new 0 0 24 24" height="512" viewBox="0 0 24 24" width="512" xmlns="http://www.w3.org/2000/svg"><path d="m23.62 10.85-2.62-2.511v-6.589c0-.414-.336-.75-.75-.75h-3.5c-.414 0-.75.336-.75.75v1.796l-3.48-3.336c-.29-.28-.75-.28-1.04 0l-11.11 10.65c-.24.23-.37.56-.37.89 0 .69.56 1.25 1.25 1.25h1.75v9c0 1.1.9 2 2 2h14c1.1 0 2-.9 2-2v-9h1.75c.69 0 1.25-.56 1.25-1.25 0-.33-.13-.66-.38-.9z" fill="#2196f3"/><path d="m18.75 24h-13.5c-1.241 0-2.25-1.009-2.25-2.25v-8.75h-1.75c-.689 0-1.25-.561-1.25-1.25 0-.331.135-.655.37-.89l11.111-10.652c.286-.274.736-.279 1.027-.01l3.492 3.22v-1.668c0-.414.336-.75.75-.75h3.5c.414 0 .75.336.75.75v6.526l2.625 2.579c.24.24.375.564.375.895 0 .689-.561 1.25-1.25 1.25h-1.75v8.75c0 1.241-1.009 2.25-2.25 2.25zm-16.881-12.5h1.881c.414 0 .75.336.75.75v9.5c0 .414.336.75.75.75h13.5c.414 0 .75-.336.75-.75v-9.5c0-.414.336-.75.75-.75h1.892l-2.417-2.375c-.144-.141-.225-.333-.225-.535v-6.09h-2v2.63c0 .298-.176.567-.449.687-.272.12-.59.067-.809-.136l-4.232-3.902z"/></svg>