<svg enable-background="new 0 0 24 24" height="512" viewBox="0 0 24 24" width="512" xmlns="http://www.w3.org/2000/svg"><path d="m16.907 12.203-5.11-5.11c-.244-.245-.609-.317-.928-.185-.318.132-.526.442-.526.787v5.11c0 .47.381.852.852.852h5.11c.344 0 .655-.207.787-.526.131-.319.058-.684-.185-.928z" fill="#4caf50"/><path d="m18.25 23h-14.5c-1.517 0-2.75-1.233-2.75-2.75v-14.5c0-1.517 1.233-2.75 2.75-2.75h9.5c.414 0 .75.336.75.75s-.336.75-.75.75h-9.5c-.689 0-1.25.561-1.25 1.25v14.5c0 .689.561 1.25 1.25 1.25h14.5c.689 0 1.25-.561 1.25-1.25v-9.5c0-.414.336-.75.75-.75s.75.336.75.75v9.5c0 1.517-1.233 2.75-2.75 2.75z"/><path d="m17.25 14h-6.5c-.414 0-.75-.336-.75-.75v-6.5c0-.304.183-.577.463-.693.281-.114.603-.051.817.163l6.5 6.5c.214.215.279.537.163.817s-.39.463-.693.463zm-5.75-1.5h3.939l-3.939-3.939z"/><path d="m14 10.75c-.192 0-.384-.073-.53-.22-.293-.293-.293-.768 0-1.061l8.25-8.25c.293-.293.768-.293 1.061 0s.293.768 0 1.061l-8.25 8.25c-.147.147-.339.22-.531.22z"/></svg>