<svg enable-background="new 0 0 24 24" height="512" viewBox="0 0 24 24" width="512" xmlns="http://www.w3.org/2000/svg"><path d="m21.5 10h-19c-.828 0-1.5.672-1.5 1.5v1c0 .828.672 1.5 1.5 1.5h19c.828 0 1.5-.672 1.5-1.5v-1c0-.828-.672-1.5-1.5-1.5z" fill="#ffc107"/><path d="m21.25 14.5h-18.5c-.965 0-1.75-.785-1.75-1.75v-1.5c0-.965.785-1.75 1.75-1.75h18.5c.965 0 1.75.785 1.75 1.75v1.5c0 .965-.785 1.75-1.75 1.75zm-18.5-3.5c-.138 0-.25.112-.25.25v1.5c0 .138.112.25.25.25h18.5c.138 0 .25-.112.25-.25v-1.5c0-.138-.112-.25-.25-.25z"/></svg>