<svg enable-background="new 0 0 24 24" height="512" viewBox="0 0 24 24" width="512" xmlns="http://www.w3.org/2000/svg"><path d="m21.807 1.333h-5.156c-.347 0-.661.209-.794.53s-.06.691.186.937l5.157 5.157c.164.164.384.252.608.252.111 0 .222-.021.329-.065.321-.133.53-.446.53-.794v-5.157c0-.475-.385-.86-.86-.86z" fill="#4caf50"/><path d="m18.25 23h-14.5c-1.517 0-2.75-1.233-2.75-2.75v-14.5c0-1.517 1.233-2.75 2.75-2.75h9.5c.414 0 .75.336.75.75s-.336.75-.75.75h-9.5c-.689 0-1.25.561-1.25 1.25v14.5c0 .689.561 1.25 1.25 1.25h14.5c.689 0 1.25-.561 1.25-1.25v-9.5c0-.414.336-.75.75-.75s.75.336.75.75v9.5c0 1.517-1.233 2.75-2.75 2.75z"/><path d="m22.25 9c-.195 0-.387-.076-.53-.22l-6.5-6.5c-.214-.215-.279-.537-.163-.817s.39-.463.693-.463h6.5c.414 0 .75.336.75.75v6.5c0 .304-.183.577-.463.693-.093.038-.19.057-.287.057zm-4.689-6.5 3.939 3.939v-3.939z"/><path d="m10.75 14c-.192 0-.384-.073-.53-.22-.293-.293-.293-.768 0-1.061l8.25-8.25c.293-.293.768-.293 1.061 0s.293.768 0 1.061l-8.25 8.25c-.147.147-.339.22-.531.22z"/></svg>