<svg enable-background="new 0 0 24 24" height="512" viewBox="0 0 24 24" width="512" xmlns="http://www.w3.org/2000/svg"><path d="m20.34 8.97-13.41 13.4h-.01l-5.29-5.29v-.01l13.41-13.4z" fill="#90a4ae"/><path d="m22.78 6.52-2.44 2.45-5.3-5.3 2.44-2.45c1.07-1.07 2.81-1.07 3.89 0l1.41 1.41c1.07 1.08 1.07 2.82 0 3.89z" fill="#607d8b"/><path d="m6.92 22.37c-.1.1-.21.17-.34.2l-5.65 1.41c-.06.01-.12.02-.18.02-.2 0-.39-.08-.53-.22-.19-.19-.26-.46-.2-.71l1.41-5.65c.03-.13.1-.24.2-.34z" fill="#607d8b"/><path d="m.75 24c-.196 0-.388-.077-.53-.22-.186-.186-.261-.456-.197-.711l1.408-5.65c.033-.132.101-.253.197-.349l15.849-15.85c1.073-1.071 2.817-1.072 3.889 0l1.414 1.415c.52.519.806 1.209.806 1.944s-.286 1.425-.806 1.944l-15.849 15.85c-.096.096-.217.165-.349.197l-5.651 1.408c-.06.015-.12.022-.181.022zm2.085-6.017-1.056 4.238 4.238-1.056 15.703-15.703c.236-.236.366-.55.366-.884s-.13-.647-.366-.884l-1.414-1.414c-.488-.488-1.281-.488-1.768 0zm3.566 3.859h.01z"/><path d="m19.811 9.182c-.192 0-.384-.073-.53-.22l-4.243-4.242c-.293-.293-.293-.768 0-1.061s.768-.293 1.061 0l4.243 4.243c.293.293.293.768 0 1.061-.148.146-.34.219-.531.219z"/><path d="m6.401 22.592c-.192 0-.384-.073-.53-.22l-4.243-4.242c-.293-.293-.293-.768 0-1.061s.768-.293 1.061 0l4.243 4.243c.293.293.293.768 0 1.061-.147.146-.339.219-.531.219z"/></svg>