<svg enable-background="new 0 0 24 24" height="512" viewBox="0 0 24 24" width="512" xmlns="http://www.w3.org/2000/svg"><path d="m21.85 5.31c0 .6-.23 1.17-.66 1.59l-3.02 3.03-4.6-4.6 3.03-3.02c.85-.85 2.33-.86 3.18 0l1.41 1.41c.43.42.66.99.66 1.59z" fill="#607d8b"/><path d="m18.17 9.93-10.76 10.76c-.1.1-.23.17-.36.2l-4.63 1.09c-.05.01-.11.02-.17.02-.2 0-.39-.08-.53-.22-.18-.18-.26-.45-.2-.7l1.09-4.63c.03-.13.1-.26.2-.36l10.76-10.76z" fill="#90a4ae"/><path d="m23.25 22h-13.5c-.414 0-.75-.336-.75-.75s.336-.75.75-.75h13.5c.414 0 .75.336.75.75s-.336.75-.75.75z"/><path d="m2.25 22c-.197 0-.388-.078-.53-.22-.184-.184-.259-.449-.2-.702l1.09-4.625c.032-.136.101-.26.2-.358l13.789-13.789c.848-.849 2.332-.851 3.182 0l1.414 1.414c.877.877.877 2.305 0 3.182l-13.789 13.788c-.099.099-.223.168-.358.2l-4.625 1.09c-.058.014-.116.02-.173.02zm1.771-4.996-.763 3.238 3.238-.763 13.638-13.638c.142-.142.22-.33.22-.531 0-.2-.078-.389-.22-.53l-1.414-1.414c-.283-.283-.778-.283-1.06 0zm2.854 3.156h.01z"/><path d="m17.639 10.146c-.192 0-.384-.073-.53-.22l-3.536-3.536c-.293-.293-.293-.768 0-1.061s.768-.293 1.061 0l3.536 3.536c.293.293.293.768 0 1.061-.147.147-.339.22-.531.22z"/></svg>