<svg enable-background="new 0 0 24 24" height="512" viewBox="0 0 24 24" width="512" xmlns="http://www.w3.org/2000/svg"><circle cx="16.25" cy="7.75" fill="#4caf50" r="7.75"/><path d="m16.25 15.5c-4.273 0-7.75-3.477-7.75-7.75s3.477-7.75 7.75-7.75 7.75 3.477 7.75 7.75-3.477 7.75-7.75 7.75zm0-14c-3.446 0-6.25 2.804-6.25 6.25s2.804 6.25 6.25 6.25 6.25-2.804 6.25-6.25-2.804-6.25-6.25-6.25z"/><path d="m.75 24c-.192 0-.384-.073-.53-.22-.293-.293-.293-.768 0-1.061l10.55-10.55c.293-.293.768-.293 1.061 0s.293.768 0 1.061l-10.551 10.55c-.146.147-.338.22-.53.22z"/><path d="m12.25 8.5c-.414 0-.75-.336-.75-.75 0-2.619 2.131-4.75 4.75-4.75.414 0 .75.336.75.75s-.336.75-.75.75c-1.792 0-3.25 1.458-3.25 3.25 0 .414-.336.75-.75.75z"/></svg>