<svg enable-background="new 0 0 24 24" height="512" viewBox="0 0 24 24" width="512" xmlns="http://www.w3.org/2000/svg"><path d="m23.487 7.583-7.071-7.071c-.683-.683-1.792-.682-2.475 0l-.977.977c-.69.689-.927 1.693-.619 2.619.127.383.029.798-.256 1.084l-2.866 2.867c-.235.236-.549.366-.883.366h-1.172c-.735 0-1.425.286-1.945.806l-.474.474c-.331.331-.513.77-.513 1.237s.182.907.513 1.237l7.071 7.071c.331.331.77.513 1.237.513s.907-.182 1.237-.513l.475-.475c.52-.52.806-1.21.806-1.945v-1.17c0-.334.13-.648.366-.884l2.867-2.866c.286-.287.701-.384 1.084-.256.923.307 1.928.072 2.619-.619l.977-.977c.682-.682.682-1.792-.001-2.475z" fill="#f44336"/><path d="m13.058 19.764c-.467 0-.907-.182-1.237-.513l-7.072-7.071c-.331-.33-.513-.77-.513-1.237s.182-.907.513-1.237l.475-.476c.52-.52 1.211-.806 1.945-.806h1.171c.334 0 .648-.13.884-.366l2.866-2.866c.286-.286.384-.701.256-1.084-.308-.927-.071-1.93.619-2.62l.977-.977c.683-.683 1.792-.683 2.475 0l7.071 7.071c.33.333.512.772.512 1.239s-.182.907-.513 1.237l-.977.977c-.691.69-1.695.926-2.619.619-.383-.125-.797-.03-1.083.256l-2.867 2.866c-.236.236-.366.55-.366.884v1.171c0 .735-.286 1.426-.806 1.945l-.474.474c-.331.332-.77.514-1.237.514zm-5.89-9.839c-.333 0-.648.13-.885.367l-.473.474c-.063.064-.073.138-.073.177s.009.113.073.176l7.072 7.072c.098.098.256.098.354 0l.475-.475c.236-.236.366-.55.366-.884v-1.172c0-.735.286-1.426.806-1.945l2.866-2.866c.689-.689 1.692-.926 2.619-.619.384.13.799.031 1.084-.256l.977-.977c.097-.098.097-.256 0-.354l-7.071-7.071c-.098-.098-.257-.097-.354 0l-.979.978c-.286.286-.384.701-.256 1.084.308.925.071 1.928-.619 2.619l-2.866 2.867c-.519.519-1.209.805-1.944.805z"/><path d="m.75 24c-.192 0-.384-.073-.531-.22-.292-.293-.292-.768.001-1.061l8.07-8.06c.292-.292.768-.293 1.061.001.292.293.292.768-.001 1.061l-8.07 8.06c-.146.146-.338.219-.53.219z"/></svg>