<svg enable-background="new 0 0 24 24" height="512" viewBox="0 0 24 24" width="512" xmlns="http://www.w3.org/2000/svg"><path d="m21.5 10h-19c-.828 0-1.5.672-1.5 1.5v1c0 .828.672 1.5 1.5 1.5h19c.828 0 1.5-.672 1.5-1.5v-1c0-.828-.672-1.5-1.5-1.5z" fill="#4caf50"/><path d="m10 2.5v19c0 .828.672 1.5 1.5 1.5h1c.828 0 1.5-.672 1.5-1.5v-19c0-.828-.672-1.5-1.5-1.5h-1c-.828 0-1.5.672-1.5 1.5z" fill="#4caf50"/><path d="m12.75 23h-1.5c-.965 0-1.75-.785-1.75-1.75v-6.75h-6.75c-.965 0-1.75-.785-1.75-1.75v-1.5c0-.965.785-1.75 1.75-1.75h6.75v-6.75c0-.965.785-1.75 1.75-1.75h1.5c.965 0 1.75.785 1.75 1.75v6.75h6.75c.965 0 1.75.785 1.75 1.75v1.5c0 .965-.785 1.75-1.75 1.75h-6.75v6.75c0 .965-.785 1.75-1.75 1.75zm-10-12c-.138 0-.25.112-.25.25v1.5c0 .138.112.25.25.25h7.5c.414 0 .75.336.75.75v7.5c0 .138.112.25.25.25h1.5c.138 0 .25-.112.25-.25v-7.5c0-.414.336-.75.75-.75h7.5c.138 0 .25-.112.25-.25v-1.5c0-.138-.112-.25-.25-.25h-7.5c-.414 0-.75-.336-.75-.75v-7.5c0-.138-.112-.25-.25-.25h-1.5c-.138 0-.25.112-.25.25v7.5c0 .414-.336.75-.75.75z"/></svg>