<svg enable-background="new 0 0 24 24" height="512" viewBox="0 0 24 24" width="512" xmlns="http://www.w3.org/2000/svg"><path d="m16.508 0h-9.758c-1.519 0-2.75 1.231-2.75 2.75v4c0 .414.336.75.75.75h14.5c.414 0 .75-.336.75-.75v-1.625-1.633c0-1.928-1.564-3.492-3.492-3.492z" fill="#eceff1"/><path d="m21.25 6h-18.5c-1.517 0-2.75 1.233-2.75 2.75v6.5c0 1.517 1.233 2.75 2.75 2.75h18.5c1.517 0 2.75-1.233 2.75-2.75v-6.5c0-1.517-1.233-2.75-2.75-2.75z" fill="#2196f3"/><path d="m20 13.75v7.5c0 .67-.24 1.29-.63 1.76-.51.61-1.27.99-2.12.99h-10.5c-.9 0-1.71-.44-2.21-1.11-.34-.46-.54-1.02-.54-1.64v-7.5c0-.41.34-.75.75-.75h14.5c.41 0 .75.34.75.75z" fill="#eceff1"/><path d="m19.37 23.01c-.51.61-1.27.99-2.12.99h-10.5c-.9 0-1.71-.44-2.21-1.11l3.93-3.92c.14-.14.33-.22.53-.22s.39.08.53.22l1.4 1.4 2.51-2.86c.14-.17.34-.26.56-.26s.42.09.56.26z" fill="#4caf50"/><path d="m21.25 18h-2c-.414 0-.75-.336-.75-.75s.336-.75.75-.75h2c.689 0 1.25-.561 1.25-1.25v-6.5c0-.689-.561-1.25-1.25-1.25h-18.5c-.689 0-1.25.561-1.25 1.25v6.5c0 .689.561 1.25 1.25 1.25h2c.414 0 .75.336.75.75s-.336.75-.75.75h-2c-1.517 0-2.75-1.233-2.75-2.75v-6.5c0-1.517 1.233-2.75 2.75-2.75h18.5c1.517 0 2.75 1.233 2.75 2.75v6.5c0 1.517-1.233 2.75-2.75 2.75z"/><path d="m17.25 24h-10.5c-1.517 0-2.75-1.233-2.75-2.75v-7.5c0-.414.336-.75.75-.75h14.5c.414 0 .75.336.75.75v7.5c0 1.517-1.233 2.75-2.75 2.75zm-11.75-9.5v6.75c0 .689.561 1.25 1.25 1.25h10.5c.689 0 1.25-.561 1.25-1.25v-6.75z"/><path d="m5.608 23.642c-.192 0-.384-.073-.53-.22-.293-.293-.293-.768 0-1.061l3.392-3.391c.281-.281.779-.281 1.061 0l1.97 1.97c.293.293.293.768 0 1.061s-.768.293-1.061 0l-1.44-1.44-2.861 2.862c-.147.146-.338.219-.531.219z"/><path d="m18.321 23.689c-.208 0-.416-.086-.564-.256l-3.756-4.293-2.467 2.824c-.272.313-.747.343-1.058.072-.312-.272-.344-.746-.071-1.058l3.03-3.47c.142-.163.348-.257.564-.257s.422.093.564.256l4.321 4.939c.272.312.241.785-.07 1.058-.141.124-.317.185-.493.185z"/><path d="m19.25 7.5c-.414 0-.75-.336-.75-.75v-4c0-.689-.561-1.25-1.25-1.25h-10.5c-.689 0-1.25.561-1.25 1.25v4c0 .414-.336.75-.75.75s-.75-.336-.75-.75v-4c0-1.517 1.233-2.75 2.75-2.75h10.5c1.517 0 2.75 1.233 2.75 2.75v4c0 .414-.336.75-.75.75z"/></svg>