<svg enable-background="new 0 0 24 24" height="512" viewBox="0 0 24 24" width="512" xmlns="http://www.w3.org/2000/svg"><path d="m21.25 0h-18.5c-1.517 0-2.75 1.233-2.75 2.75v18.5c0 1.517 1.233 2.75 2.75 2.75h18.5c1.517 0 2.75-1.233 2.75-2.75v-18.5c0-1.517-1.233-2.75-2.75-2.75z" fill="#ffc107"/><circle cx="12" cy="18" r="1"/><path d="m12 14.75c-.414 0-.75-.336-.75-.75v-1.01c0-.952.604-1.805 1.501-2.122 1.196-.421 1.999-1.693 1.999-2.618 0-1.517-1.233-2.75-2.75-2.75s-2.75 1.233-2.75 2.75c0 .414-.336.75-.75.75s-.75-.336-.75-.75c0-2.344 1.907-4.25 4.25-4.25s4.25 1.906 4.25 4.25c0 1.669-1.317 3.44-3 4.032-.299.106-.5.391-.5.708v1.01c0 .414-.336.75-.75.75z"/><path d="m21.25 24h-18.5c-1.517 0-2.75-1.233-2.75-2.75v-18.5c0-1.517 1.233-2.75 2.75-2.75h18.5c1.517 0 2.75 1.233 2.75 2.75v18.5c0 1.517-1.233 2.75-2.75 2.75zm-18.5-22.5c-.689 0-1.25.561-1.25 1.25v18.5c0 .689.561 1.25 1.25 1.25h18.5c.689 0 1.25-.561 1.25-1.25v-18.5c0-.689-.561-1.25-1.25-1.25z"/></svg>