<svg enable-background="new 0 0 24 24" height="512" viewBox="0 0 24 24" width="512" xmlns="http://www.w3.org/2000/svg"><path d="m22.205 6.648-4.833-4.832c-.519-.52-1.209-.806-1.944-.806h-6.835c-.735 0-1.426.286-1.944.806l-4.834 4.832c-.52.52-.806 1.21-.806 1.944v6.835c0 .734.286 1.425.806 1.944l4.833 4.833c.52.52 1.21.806 1.944.806h6.835c.734 0 1.425-.286 1.944-.806l4.833-4.833c.519-.519.805-1.209.805-1.944v-6.834c.001-.735-.285-1.426-.804-1.945z" fill="#f44336"/><path d="m8.288 16.463c-.192 0-.384-.073-.53-.22-.293-.293-.293-.768 0-1.061l7.424-7.425c.293-.293.768-.293 1.061 0s.293.768 0 1.061l-7.424 7.425c-.147.147-.339.22-.531.22z"/><path d="m15.712 16.463c-.192 0-.384-.073-.53-.22l-7.424-7.425c-.293-.293-.293-.768 0-1.061s.768-.293 1.061 0l7.424 7.425c.293.293.293.768 0 1.061-.147.147-.339.22-.531.22z"/><path d="m16.256 23.011h-8.491c-.199 0-.39-.079-.53-.22l-6.005-6.005c-.141-.141-.22-.331-.22-.53v-8.491c0-.199.079-.39.22-.53l6.004-6.005c.141-.141.331-.22.53-.22h8.491c.199 0 .39.079.53.22l6.004 6.004c.141.141.22.331.22.53v8.491c0 .199-.079.39-.22.53l-6.004 6.005c-.139.142-.33.221-.529.221zm-8.181-1.5h7.87l5.564-5.565v-7.87l-5.564-5.564h-7.87l-5.565 5.563v7.87z"/></svg>