<svg enable-background="new 0 0 24 24" height="512" viewBox="0 0 24 24" width="512" xmlns="http://www.w3.org/2000/svg"><g fill="#4caf50"><circle cx="19.312" cy="3.688" r="3.688"/><circle cx="19.312" cy="20.312" r="3.688"/><circle cx="4.531" cy="11.906" r="3.531"/></g><path d="m19.25 7.5c-2.067 0-3.75-1.683-3.75-3.75s1.683-3.75 3.75-3.75 3.75 1.683 3.75 3.75-1.683 3.75-3.75 3.75zm0-6c-1.24 0-2.25 1.01-2.25 2.25s1.01 2.25 2.25 2.25 2.25-1.01 2.25-2.25-1.01-2.25-2.25-2.25z"/><path d="m19.25 24c-2.067 0-3.75-1.683-3.75-3.75s1.683-3.75 3.75-3.75 3.75 1.683 3.75 3.75-1.683 3.75-3.75 3.75zm0-6c-1.24 0-2.25 1.01-2.25 2.25s1.01 2.25 2.25 2.25 2.25-1.01 2.25-2.25-1.01-2.25-2.25-2.25z"/><path d="m4.75 15.75c-2.067 0-3.75-1.683-3.75-3.75s1.683-3.75 3.75-3.75 3.75 1.683 3.75 3.75-1.683 3.75-3.75 3.75zm0-6c-1.24 0-2.25 1.01-2.25 2.25s1.01 2.25 2.25 2.25 2.25-1.01 2.25-2.25-1.01-2.25-2.25-2.25z"/><path d="m7.361 11.271c-.261 0-.515-.136-.652-.379-.205-.359-.08-.817.28-1.022l9.279-5.29c.358-.208.818-.08 1.022.28.205.359.08.817-.28 1.022l-9.279 5.29c-.117.067-.244.099-.37.099z"/><path d="m16.639 19.521c-.126 0-.253-.031-.37-.099l-9.279-5.29c-.36-.205-.485-.663-.28-1.022.203-.36.662-.488 1.022-.28l9.279 5.29c.36.205.485.663.28 1.022-.138.243-.392.379-.652.379z"/></svg>