<svg enable-background="new 0 0 24 24" height="512" viewBox="0 0 24 24" width="512" xmlns="http://www.w3.org/2000/svg"><path d="m8.25 4h-.25v-3.25c0-.306-.186-.581-.47-.696-.283-.115-.609-.046-.82.176l-6.5 6.75c-.28.29-.28.75 0 1.04l6.5 6.75c.212.221.539.291.82.176.284-.115.47-.39.47-.696v-3.25h1.187c3.146 0 5.973 1.748 7.382 4.566l.013.025c.13.255.391.409.668.409.058 0 .117-.007.175-.021.338-.081.575-.382.575-.729v-1.5c0-5.376-4.374-9.75-9.75-9.75z" fill="#2196f3"/><path d="m21.25 24h-18.5c-1.517 0-2.75-1.233-2.75-2.75v-8.5c0-.414.336-.75.75-.75s.75.336.75.75v8.5c0 .689.561 1.25 1.25 1.25h18.5c.689 0 1.25-.561 1.25-1.25v-14.5c0-.689-.561-1.25-1.25-1.25h-3.5c-.414 0-.75-.336-.75-.75s.336-.75.75-.75h3.5c1.517 0 2.75 1.233 2.75 2.75v14.5c0 1.517-1.233 2.75-2.75 2.75z"/><path d="m17.25 16c-.275 0-.534-.151-.665-.404l-.013-.024c-1.412-2.824-4.239-4.572-7.384-4.572h-1.188v3.25c0 .306-.186.581-.47.695-.281.116-.608.045-.82-.175l-6.5-6.75c-.28-.291-.28-.75 0-1.041l6.5-6.75c.211-.221.536-.291.82-.175.284.115.47.39.47.696v3.25h.25c5.376 0 9.75 4.374 9.75 9.75v1.5c0 .346-.236.646-.572.729-.059.014-.119.021-.178.021zm-10-6.5h1.938c2.823 0 5.43 1.191 7.249 3.222-.508-4.066-3.986-7.222-8.187-7.222h-1c-.414 0-.75-.336-.75-.75v-2.14l-4.709 4.89 4.709 4.89v-2.14c0-.414.336-.75.75-.75z"/></svg>