<svg enable-background="new 0 0 24 24" height="512" viewBox="0 0 24 24" width="512" xmlns="http://www.w3.org/2000/svg"><path d="m23.79 6.98-6.5-6.75c-.212-.221-.537-.29-.82-.176-.284.115-.47.39-.47.696v3.25h-.25c-5.376 0-9.75 4.374-9.75 9.75v1.5c0 .348.245.638.584.717.055.013.11.02.165.02.284 0 .555-.166.685-.426 1.406-2.813 4.233-4.561 7.378-4.561h1.188v3.25c0 .306.186.581.47.696.281.113.608.045.82-.176l6.5-6.75c.28-.29.28-.75 0-1.04z" fill="#2196f3"/><path d="m21.25 24h-18.5c-1.517 0-2.75-1.233-2.75-2.75v-14.5c0-1.517 1.233-2.75 2.75-2.75h3.5c.414 0 .75.336.75.75s-.336.75-.75.75h-3.5c-.689 0-1.25.561-1.25 1.25v14.5c0 .689.561 1.25 1.25 1.25h18.5c.689 0 1.25-.561 1.25-1.25v-8.5c0-.414.336-.75.75-.75s.75.336.75.75v8.5c0 1.517-1.233 2.75-2.75 2.75z"/><path d="m6.75 15.987c-.056 0-.111-.007-.166-.02-.339-.079-.584-.369-.584-.717v-1.5c0-5.376 4.374-9.75 9.75-9.75h.25v-3.25c0-.306.186-.581.47-.695.283-.114.608-.045.82.175l6.5 6.75c.28.291.28.75 0 1.041l-6.5 6.75c-.212.22-.539.29-.82.175-.284-.115-.47-.39-.47-.696v-3.25h-1.188c-3.146 0-5.973 1.748-7.379 4.561-.129.26-.4.426-.683.426zm9-10.487c-4.2 0-7.677 3.155-8.186 7.22 1.815-2.027 4.424-3.22 7.248-3.22h1.938c.414 0 .75.336.75.75v2.14l4.709-4.89-4.709-4.89v2.14c0 .414-.336.75-.75.75z"/></svg>