<svg enable-background="new 0 0 24 24" height="512" viewBox="0 0 24 24" width="512" xmlns="http://www.w3.org/2000/svg"><path d="m12 9c-1.654 0-3 1.346-3 3 0 1.302.839 2.402 2 2.816h2c1.161-.414 2-1.514 2-2.816 0-1.654-1.346-3-3-3z" fill="#2196f3"/><path d="m12 24c-.414 0-.75-.336-.75-.75v-8.75c0-.414.336-.75.75-.75s.75.336.75.75v8.75c0 .414-.336.75-.75.75z"/><path d="m12 15c-1.654 0-3-1.346-3-3s1.346-3 3-3 3 1.346 3 3-1.346 3-3 3zm0-4.5c-.827 0-1.5.673-1.5 1.5s.673 1.5 1.5 1.5 1.5-.673 1.5-1.5-.673-1.5-1.5-1.5z"/><path d="m19.95 20.7c-.192 0-.385-.073-.532-.221-.292-.294-.291-.769.002-1.061 1.987-1.976 3.08-4.61 3.08-7.418 0-5.79-4.71-10.5-10.5-10.5s-10.5 4.71-10.5 10.5c0 2.808 1.093 5.442 3.079 7.419.293.292.294.767.002 1.061s-.768.296-1.061.002c-2.27-2.259-3.52-5.272-3.52-8.482 0-6.617 5.383-12 12-12s12 5.383 12 12c0 3.21-1.25 6.223-3.521 8.481-.146.146-.337.219-.529.219z"/><path d="m17.12 17.87c-.193 0-.386-.074-.532-.222-.292-.294-.29-.769.004-1.061 1.23-1.22 1.908-2.85 1.908-4.587 0-3.584-2.916-6.5-6.5-6.5s-6.5 2.916-6.5 6.5c0 1.737.678 3.367 1.908 4.588.294.292.296.767.004 1.061s-.767.296-1.061.004c-1.516-1.506-2.351-3.512-2.351-5.653 0-4.411 3.589-8 8-8s8 3.589 8 8c0 2.141-.835 4.147-2.352 5.652-.146.146-.337.218-.528.218z"/></svg>