<svg enable-background="new 0 0 24 24" height="512" viewBox="0 0 24 24" width="512" xmlns="http://www.w3.org/2000/svg"><path d="m23.418 9.313c-.15-.465-.562-.794-1.05-.839l-6.626-.602-2.62-6.133c-.193-.449-.633-.739-1.122-.739s-.929.291-1.122.741l-2.62 6.132-6.627.602c-.487.044-.899.373-1.049.838-.151.465-.011.974.357 1.296l5.009 4.392-1.477 6.505c-.108.478.078.972.475 1.26.212.156.463.234.714.234.217 0 .433-.058.626-.174l5.714-3.417 5.713 3.416c.418.251.945.229 1.341-.058.397-.288.583-.782.475-1.26l-1.477-6.505 5.009-4.392c.368-.322.508-.831.357-1.297z" fill="#ffc107"/><path d="m5.373 23.499c-.264 0-.525-.082-.748-.243-.415-.3-.609-.817-.496-1.317l1.544-6.8-5.236-4.592c-.385-.337-.532-.868-.374-1.355.158-.486.588-.831 1.097-.878l6.929-.629 2.738-6.41c.202-.471.662-.775 1.173-.775s.971.304 1.173.774l2.738 6.411 6.928.629c.51.046.94.391 1.098.877.158.487.012 1.019-.374 1.355l-5.235 4.591 1.544 6.8c.113.5-.081 1.017-.496 1.317-.413.299-.964.324-1.401.062l-5.975-3.57-5.974 3.572c-.202.121-.427.181-.653.181zm6.627-5.291c.227 0 .452.061.654.181l5.638 3.372-1.457-6.419c-.104-.458.051-.934.404-1.243l4.944-4.337-6.541-.594c-.469-.042-.875-.337-1.059-.772l-2.583-6.049-2.585 6.05c-.183.433-.589.728-1.059.77l-6.54.594 4.944 4.337c.354.309.508.786.404 1.244l-1.457 6.419 5.638-3.372c.203-.12.428-.181.655-.181zm-3.965-10.398v.001zm7.929-.003v.001s0 0 0-.001z"/></svg>