<svg enable-background="new 0 0 24 24" height="512" viewBox="0 0 24 24" width="512" xmlns="http://www.w3.org/2000/svg"><path d="m20.25 7.5c-.414 0-.75.336-.75.75h-15c0-.414-.336-.75-.75-.75s-.75.336-.75.75v13c0 1.517 1.233 2.75 2.75 2.75h12.5c1.517 0 2.75-1.233 2.75-2.75v-13c0-.414-.336-.75-.75-.75z" fill="#eceff1"/><path d="m20.25 3h-16.5c-1.517 0-2.75 1.233-2.75 2.75v2.5c0 .414.336.75.75.75h20.5c.414 0 .75-.336.75-.75v-2.5c0-1.517-1.233-2.75-2.75-2.75z" fill="#607d8b"/><path d="m18.25 24h-12.5c-1.517 0-2.75-1.233-2.75-2.75v-13c0-.414.336-.75.75-.75s.75.336.75.75v13c0 .689.561 1.25 1.25 1.25h12.5c.689 0 1.25-.561 1.25-1.25v-13c0-.414.336-.75.75-.75s.75.336.75.75v13c0 1.517-1.233 2.75-2.75 2.75z"/><path d="m22.25 9h-20.5c-.414 0-.75-.336-.75-.75v-2.5c0-1.517 1.233-2.75 2.75-2.75h16.5c1.517 0 2.75 1.233 2.75 2.75v2.5c0 .414-.336.75-.75.75zm-19.75-1.5h19v-1.75c0-.689-.561-1.25-1.25-1.25h-16.5c-.689 0-1.25.561-1.25 1.25z"/><path d="m16.25 4.5c-.414 0-.75-.336-.75-.75v-2c0-.138-.112-.25-.25-.25h-6.5c-.138 0-.25.112-.25.25v2c0 .414-.336.75-.75.75s-.75-.336-.75-.75v-2c0-.965.785-1.75 1.75-1.75h6.5c.965 0 1.75.785 1.75 1.75v2c0 .414-.336.75-.75.75z"/><path d="m12 20c-.414 0-.75-.336-.75-.75v-6.5c0-.414.336-.75.75-.75s.75.336.75.75v6.5c0 .414-.336.75-.75.75z"/><path d="m7.75 20c-.414 0-.75-.336-.75-.75v-6.5c0-.414.336-.75.75-.75s.75.336.75.75v6.5c0 .414-.336.75-.75.75z"/><path d="m16.25 20c-.414 0-.75-.336-.75-.75v-6.5c0-.414.336-.75.75-.75s.75.336.75.75v6.5c0 .414-.336.75-.75.75z"/></svg>