<svg enable-background="new 0 0 24 24" height="512" viewBox="0 0 24 24" width="512" xmlns="http://www.w3.org/2000/svg"><path d="m16.001 3.849-3.4-3.4c-.332-.332-.87-.332-1.202 0l-3.4 3.4c-.243.243-.316.609-.184.927.131.317.441.524.785.524h2.55 1.7 2.55c.344 0 .654-.207.785-.525.132-.317.059-.683-.184-.926z" fill="#4caf50"/><path d="m21.25 24h-18.5c-1.517 0-2.75-1.233-2.75-2.75v-4.5c0-.414.336-.75.75-.75s.75.336.75.75v4.5c0 .689.561 1.25 1.25 1.25h18.5c.689 0 1.25-.561 1.25-1.25v-4.5c0-.414.336-.75.75-.75s.75.336.75.75v4.5c0 1.517-1.233 2.75-2.75 2.75z"/><path d="m12 17c-.414 0-.75-.336-.75-.75v-11.5c0-.414.336-.75.75-.75s.75.336.75.75v11.5c0 .414-.336.75-.75.75z"/><path d="m16 5.5h-8c-.304 0-.577-.183-.693-.463s-.052-.602.163-.817l4-4c.293-.293.768-.293 1.061 0l4 4c.215.215.278.537.163.817-.117.28-.39.463-.694.463zm-6.189-1.5h4.379l-2.19-2.189z"/></svg>