<svg enable-background="new 0 0 24 24" height="512" viewBox="0 0 24 24" width="512" xmlns="http://www.w3.org/2000/svg"><path d="m20.25 4h-11c-.414 0-.75.336-.75.75v10.5c0 .965.785 1.75 1.75 1.75h10c.965 0 1.75-.785 1.75-1.75v-9.5c0-.965-.785-1.75-1.75-1.75z" fill="#1976d2"/><path d="m13.25 0h-10.5c-.414 0-.75.336-.75.75v11.5c0 .414.336.75.75.75h10.5c.965 0 1.75-.785 1.75-1.75v-9.5c0-.965-.785-1.75-1.75-1.75z" fill="#2196f3"/><path d="m2.75 24c-.414 0-.75-.336-.75-.75v-22.5c0-.414.336-.75.75-.75s.75.336.75.75v22.5c0 .414-.336.75-.75.75z"/><path d="m13.25 13h-10.5c-.414 0-.75-.336-.75-.75s.336-.75.75-.75h10.5c.138 0 .25-.112.25-.25v-9.5c0-.138-.112-.25-.25-.25h-10.5c-.414 0-.75-.336-.75-.75s.336-.75.75-.75h10.5c.965 0 1.75.785 1.75 1.75v9.5c0 .965-.785 1.75-1.75 1.75z"/><path d="m20.25 17h-10c-.965 0-1.75-.785-1.75-1.75v-3c0-.414.336-.75.75-.75s.75.336.75.75v3c0 .136.114.25.25.25h10c.136 0 .25-.114.25-.25v-9.5c0-.136-.114-.25-.25-.25h-6c-.414 0-.75-.336-.75-.75s.336-.75.75-.75h6c.965 0 1.75.785 1.75 1.75v9.5c0 .965-.785 1.75-1.75 1.75z"/></svg>